<svg viewBox="0 0 717.02 194.62" xmlns="http://www.w3.org/2000/svg" id="Capa_1"><defs><style>.cls-1{fill:#faeb38;}.cls-1,.cls-2,.cls-3,.cls-4,.cls-5,.cls-6,.cls-7,.cls-8,.cls-9,.cls-10{stroke-width:0px;}.cls-2{fill:#262e80;}.cls-3{fill:#6bb5e3;}.cls-4{fill:#36594a;}.cls-5{fill:#002d5b;}.cls-6{fill:#bf0fbf;}.cls-7{fill:#c20a21;}.cls-8{fill:#9ccfed;}.cls-9{fill:#c20dc2;}.cls-10{fill:#7a85fa;}</style></defs><path d="M407.25,118.8c0-4.47.15-8.63,0-14.76-.12-5.07-.32-12.03-.37-17.09-.06-5.26-.3-8.4-.45-12.72-.15-4.6-.32-9.2-.43-13.81-.11-4.61-.17-9.21-.32-13.89-.15-4.68-.32-7.56-.33-12.27.03-2.22-.1-4.44-.36-6.64-.43-3.73-.69-4.43-2.76-6.44-2.06-2.01-5.09-2.61-7.85-2.7h-.24c-5.63-.04-10.88,4.27-10.87,9.59v14.76c0,2.29.14,4.6.2,6.86s.13,4.81.17,7.2c.1,4.82.29,9.64.46,14.45.15,4.61.36,9.21.74,13.82.28,3.42.74,6.84,1.13,10.26.38,3.62.68,7.23.84,10.87-.64-1.78-1.29-3.56-1.94-5.35-1.57-4.29-2.95-8.62-4.55-12.89s-3.15-8.59-4.83-12.89c-1.73-4.43-3.56-8.86-5.27-13.28-1.76-4.68-3.69-9.34-5.79-13.95-.88-1.97-1.68-3.96-2.63-5.91-.95-1.95-1.71-3.61-2.81-5.53-.29-.54-.74-1.36-1.25-2.46-.6-1.74-1.63-3.3-2.99-4.53-2.01-1.89-4.65-2.97-7.42-3.04h-.26c-2.77-.03-5.45.95-7.54,2.76-2.01,1.71-3.21,4.19-3.31,6.83.05,2.69.07,5.39.23,8.12.16,2.73.35,5.17.56,7.77.38,4.75.74,9.48,1.03,14.22.27,4.38.49,8.75.8,13.12.36,4.91.6,9.82.74,14.76.16,4.78.16,9.59.32,14.35.15,4.61.26,9.13.54,13.69.58,9.39.52,18.81.46,28.2,0,3.69,0,7.38.2,11.07.23,3.86.27,7.74.33,11.62-.03,2.71,1.05,5.31,2.99,7.19,2.02,1.89,4.66,2.97,7.43,3.03,2.88.07,5.69-.96,7.85-2.87,2-1.72,3.2-4.19,3.31-6.83-.07-4.75-.21-9.49-.48-14.24-.13-2.32-.07-4.68-.05-7,.02-2.33,0-4.6,0-6.86,0-4.76,0-9.52-.12-14.28-.1-4.49-.49-8.99-.63-13.48-.15-4.72-.38-9.42-.46-14.14,0-1.97,0-3.95-.08-5.9.33.91.66,1.84.98,2.76,1.48,4.29,3.06,8.55,4.6,12.83,1.63,4.49,3.07,9.04,4.66,13.55,1.48,4.19,2.9,8.42,4.25,12.65,1.34,4.23,2.49,8.64,3.81,12.95.67,2.18,1.36,4.36,2.01,6.54.65,2.19,1.43,4.32,2.01,6.52.51,1.9,1.03,3.8,1.48,5.69.15.64.36,1.26.65,1.84,1.35,4.45,5.44,7.51,10.09,7.57,5.85.17,11.37-4.22,11.52-9.59.07-2.26,0-4.08,0-6.57v-7.53c0-2.72.12-4.38.15-6.64.03-2.26.07-4.61.09-6.87.07-9.34-.14-15.16-.24-24.53" class="cls-10"></path><path d="M686.74,120.85c.27-4.53.74-8.72,1.05-14.91.24-5.17.53-12.18.83-17.31.31-5.31.28-8.52.46-12.89.17-4.69.32-9.31.55-14.02.23-4.71.46-9.34.66-14.07.19-4.73.22-7.68.55-12.43.18-2.25.21-4.51.11-6.77-.16-3.79-.37-4.6-2.29-6.7-1.92-2.09-4.89-2.99-7.66-3.28h-.24c-5.61-.43-11.15,3.57-11.51,8.95-.34,4.96-.74,9.91-1.03,14.86-.16,2.31-.19,4.61-.28,6.95-.1,2.35-.21,4.87-.34,7.3-.24,4.88-.4,9.75-.57,14.65-.16,4.66-.29,9.32-.24,14.02,0,3.48.24,6.97.41,10.45.12,3.69.15,7.38.07,11.07-.51-1.84-1.03-3.69-1.56-5.52-1.27-4.43-2.35-8.94-3.62-13.37-1.27-4.43-2.53-8.91-3.9-13.33-1.43-4.6-2.95-9.21-4.33-13.82-1.48-4.88-3.11-9.69-4.82-14.51-.74-2.04-1.4-4.12-2.22-6.16-.81-2.03-1.48-3.78-2.41-5.82-.41-.83-.77-1.69-1.08-2.57-.47-1.78-1.39-3.42-2.66-4.76-1.86-2.04-4.4-3.33-7.15-3.61h-.26c-2.77-.22-5.52.59-7.73,2.26-2.12,1.6-3.49,4-3.78,6.64-.15,2.76-.31,5.45-.33,8.18-.02,2.73,0,5.27,0,7.9.04,4.81.08,9.65,0,14.46,0,4.43-.13,8.86-.12,13.33,0,5-.1,9.98-.28,14.97-.17,4.85-.53,9.68-.74,14.55-.15,4.6-.38,9.26-.44,13.9-.07,9.54-.79,19.06-1.48,28.54-.29,3.73-.55,7.44-.59,11.18,0,3.93-.27,7.85-.5,11.81-.23,2.73.67,5.43,2.49,7.48,3.96,4.29,10.53,4.87,15.17,1.33,2.12-1.6,3.49-4,3.78-6.64.28-4.82.46-9.63.53-14.44,0-2.36.25-4.74.44-7.1.19-2.36.35-4.6.51-6.92.35-4.81.65-9.65.92-14.46.23-4.56.15-9.12.33-13.68.18-4.78.29-9.56.54-14.33.12-1.99.23-4,.35-6,.27.92.53,1.94.78,2.91,1.17,4.43,2.45,8.86,3.69,13.28,1.31,4.67,2.41,9.37,3.69,14.02,1.18,4.35,2.29,8.71,3.34,13.08,1.05,4.43,1.84,8.92,2.88,13.35.52,2.26,1.05,4.51,1.56,6.77.51,2.26,1.11,4.47,1.56,6.73.38,1.96.74,3.9,1.03,5.87.11.63.28,1.25.52,1.84,1.01,4.54,4.84,7.91,9.48,8.33,5.81.58,11.63-3.48,12.17-8.93.21-2.28.3-4.12.49-6.64.17-2.22.39-5.36.54-7.57.18-2.77.43-4.43.62-6.71.19-2.28.38-4.66.56-6.93.77-9.44.93-15.34,1.5-24.8" class="cls-7"></path><path d="M538.93,41.1c-.6.61-1.22,1.23-1.85,1.84-1.04,1.33-1.68,2.93-1.84,4.6-1.48,9.27-1.9,18.64-2.48,27.97-.55,9.04-1.14,18.08-1.59,27.12-.21,4.52-.07,9.06,0,13.6,0,2.21.15,4.43.25,6.6.14,2.95.35,6,.74,8.96.32,2.26.65,4.51,1.04,6.76.39,2.25.67,4.37,1.11,6.54.92,4.43,1.7,8.93,2.76,13.34.75,3.13,1.73,6.19,2.95,9.17.4.9.89,1.76,1.48,2.55.74,1.12,1.63,2.22,2.52,3.28,1.11,1.19,2.35,2.25,3.69,3.17,1.39,1.01,2.87,1.87,4.43,2.6,2.22,1.09,4.54,1.97,6.92,2.62,1.99.54,4.05.85,6.08,1.23,1.22.21,2.46.33,3.69.36,1.53.02,3.07-.04,4.6-.19.66-.03,1.32-.1,1.97-.22,4.59-.85,8.81-3.11,12.07-6.45,1.73-1.61,3.31-3.37,4.72-5.27,2.97-4.41,5.38-9.18,7.18-14.19.74-2.16,1.48-4.34,2.11-6.53.87-3.02,1.57-6.07,2.21-9.13,1.95-9.01,2.49-18.22,3.1-27.36.62-8.82,1.16-17.64,1.63-26.46.19-3.51.21-7.03.17-10.55-.06-4.28-.37-8.54-.69-12.81l.16,2.57c-.14-2.21-.34-4.39-.51-6.58,0-1.04-.07-2.07-.07-3.12v-2.39c.01-1.77-.16-3.54-.53-5.27-.64-2.56-2.27-4.76-4.55-6.11-2.45-1.44-5.32-1.96-8.12-1.48-2.72.43-5.18,1.87-6.89,4.03-1.4,1.9-2.04,4.26-1.8,6.61,0,.92.17,1.65.24,2.49.1,1.42.16,2.01.22,3.45.09,2.77.4,5.59.62,8.38l-.05-.83c.1,1.48.2,2.95.33,4.43.18,3.88.15,7.77.13,11.65,0,2.22-.18,4.43-.33,6.64l-.37,6.37c-.56,9.21-1.08,18.45-1.85,27.62-.24,3.12-.57,6.22-1,9.31s-1,6.22-1.66,9.31c-1.24,5.22-2.88,10.33-4.92,15.29-.56,1.69-1.29,3.32-2.18,4.86-.48.99-1.26,1.8-2.22,2.34-.9.42-1.9.62-2.89.58-1.06-.04-2.12-.14-3.17-.3-1.18-.24-2.34-.6-3.44-1.08-.84-.33-1.59-.83-2.22-1.48-.2-.21-.42-.42-.61-.64-.24-.38-1.14-2.95-1.34-3.37-1.23-3.69-1.33-5.41-2.08-9.21-.46-2.29-.92-4.6-1.39-6.89-.47-2.29-.74-4.43-1.14-6.7-.63-3.79-1.17-7.57-1.48-11.39-.37-4.93-.26-8.64-.33-12.97-.07-4.52.24-9.04.51-13.54.53-9.01,1.08-18.02,1.65-27.01.45-6.94.92-13.9,2.02-20.78.41-2.47-.84-5.23-2.64-7.06-1.96-1.91-4.53-3.05-7.26-3.22h-.25c-2.75-.16-5.47.67-7.67,2.33l.06-.02Z" class="cls-3"></path><path d="M216.66,19.64c-.84.44-1.63.98-2.35,1.61-2.06,1.69-3.44,4.07-3.89,6.69-.61,3.56-.98,7.15-1.1,10.75-.21,3.69-.08,7.31,0,10.96.1,2.99.23,6,.36,9.01.17,4.43.3,8.78.46,13.17.39,10.22.48,20.43.79,30.64.31,10.22.66,20.26,1.1,30.39.19,4.37.6,8.72,1.09,13.06l-.32-2.76c.53,4.92,1.06,9.84,1.59,14.76.26,2.44.52,4.87.74,7.31.24,2.78.63,5.54,1.17,8.28.5,2.64,2.64,6.93,5.04,8.29,2.58,1.45,5.59,1.89,8.48,1.25,2.83-.62,5.31-2.3,6.93-4.7.42-.87.77-1.78,1.04-2.71.48-1.68.58-3.44.29-5.17-.1-.63-.21-1.27-.29-1.92-.45-4.33-.87-8.66-1.3-13.01-.49-4.97-1.11-9.91-1.56-14.88-.44-4.75-.59-9.49-.79-14.24-.23-5.32-.43-10.63-.59-15.93-.3-9.81-.46-19.63-.69-29.46-.11-5.01-.37-10.02-.54-15.02-.17-5.17-.44-10.39-.59-15.59-.15-4.99-.27-9.83-.21-14.13,0-2.07.1-3.69.06-4.89-.07-2.03,0-2.86,0-3.52.14-2.01-.28-4.02-1.22-5.81-1.4-2.37-2.27-2.61-4.48-3.23-1.23-.28-2.48-.4-3.74-.37-1.92,0-3.81.44-5.53,1.3l.06-.12Z" class="cls-1"></path><path d="M265.7,24.38c-2.09,1.82-3.33,4.43-3.41,7.2.13,10.89.17,21.79.1,32.7,0,10.01-.14,20.03-.13,30.04,0,4.75.18,9.52.27,14.25.07,4.97.12,9.94.13,14.91,0,9.86-.07,19.71-.14,29.56-.04,5.91-.09,11.81-.13,17.72-.06,2.85,1.07,5.59,3.13,7.57,2.09,1.99,4.84,3.13,7.73,3.21,5.99.18,11.51-4.43,11.57-10.13l.22-30.9c.07-9.59.11-19.19-.05-28.78-.1-5.41-.19-10.84-.3-16.24-.1-4.82,0-9.67,0-14.49.08-10.21.12-20.41.15-30.61,0-6.06-.07-12.1-.14-18.17.04-2.85-1.09-5.59-3.13-7.58-2.09-1.98-4.84-3.13-7.73-3.21h-.27c-2.89-.03-5.69,1.01-7.86,2.91v.05Z" class="cls-9"></path><path d="M213.72,82.22c-1.79,5.96,1.56,12.25,7.51,14.08,3.24,1.01,6.62,1.52,10.01,1.52l7.42.07c5.05,0,10.13.05,15.15.24,2.7.11,5.38.24,8.12.36,3.05.13,6.05,0,9.1-.16l2.99-.32c1.94-.47,3.73-1.45,5.17-2.83,4.45-4.34,4.59-11.46.31-15.97l-2.27-1.84c-1.66-1.03-3.57-1.6-5.53-1.67-2.82.15-5.62.33-8.44.19-2.61-.11-5.24-.24-7.86-.35-5.05-.2-9.65-.51-14.76-.56h-5.79c-1.57,0-2.04-.07-4.06-.21-1.41-.12-2.46-.23-3.41-.36-.91-.15-1.83-.22-2.76-.21-5,.02-9.4,3.28-10.88,8.05v-.03Z" class="cls-7"></path><path d="M576.44,27.73c-3.56,2.61-4.86,3.59-8.01,5.97-1.28.92-3.07,2.35-4.43,3.25l-1.33,1.54c-.72,1.06-1.12,2.3-1.16,3.58-.06,1.98.72,3.9,2.14,5.28,1.48,1.44,3.45,2.29,5.52,2.37l2.02-.15c1.36-.27,2.63-.87,3.69-1.77l1.48-1.01c1.13-.74,2.27-1.48,3.37-2.21.82-.56,1.6-1.17,2.38-1.76,1.78-1.34,3.48-2.76,5.17-4.24,2.96-2.48,3.35-6.9.86-9.86,0,0,0,0,0,0-.15-.18-.31-.35-.47-.51-2.61-2.45-6.45-3.03-9.67-1.48-.56.28-1.08.61-1.56,1" class="cls-4"></path><path d="M125.8,62.17l-2.53,2.22c-1.51,1.76-2.57,3.87-3.08,6.13-1.84,6.28-3.55,12.61-4.94,19.06-1.48,6.78-2.92,13.53-4.6,20.26-1.56,6.39-3.23,12.72-5.01,19.05-1.69,6.09-3.75,12.04-5.38,18.14-.82,3.05-1.65,6.09-2.32,9.21-.94,4.41-1.61,8.88-2.01,13.37.15,1.23.32,2.45.48,3.69.59,2.33,1.75,4.47,3.39,6.23,2.26,2.46,5.45,3.87,8.79,3.9,3.45-.06,6.7-1.6,8.93-4.23l1.91-2.84c1.19-2.71,2.12-5.53,2.76-8.43,2.31-11.29,4.93-21.74,8.21-33.48,1.77-6.37,3.4-12.78,4.98-19.19,1.61-6.6,3.01-13.28,4.43-19.93,1.29-5.98,2.95-11.87,4.6-17.71.86-3.61.34-7.41-1.48-10.65-1.61-3.01-4.34-5.26-7.6-6.26-3.26-.94-6.77-.39-9.59,1.51l.06-.06Z" class="cls-8"></path><path d="M128.22,31.86c-1.87,2.68-2.62,5.99-2.09,9.21,1.07,6.58,7.64,11.54,14.3,10.28,3.31-.58,6.26-2.43,8.21-5.17,1.87-2.68,2.62-5.99,2.09-9.21-1.08-6.59-7.64-11.56-14.32-10.28-3.31.57-6.25,2.43-8.19,5.17" class="cls-6"></path><path d="M302.04,66.8c-.9.98-1.6,2.11-2.07,3.35-.72,2.07-.99,4.27-.78,6.45.14,6.29.41,12.6,1.04,18.87.68,6.6,1.31,13.2,1.76,19.83.45,6.3.74,12.55.92,18.88.2,6.07,0,12.13.3,18.2.14,3.02.26,6.04.54,9.06.29,3.53.83,7.04,1.63,10.5.5,1.88,1.2,3.7,2.1,5.43,1.3,1.93,3.1,3.48,5.2,4.49,6.3,3.07,13.9.46,16.98-5.84.07-.13.12-.26.18-.39.32-1.07.66-2.13.99-3.21.3-3,.23-6.02-.22-9-1.36-11.77-1.53-20.83-1.94-32.54-.21-6.35-.58-12.69-1.03-19.03-.46-6.5-1.12-13-1.78-19.48-.58-5.84-.74-11.72-.92-17.58-.55-7.23-6.79-12.68-14.02-12.26-1.22.09-2.41.35-3.55.78-2.05.68-3.88,1.88-5.31,3.49" class="cls-4"></path><path d="M297.96,35.55c-.88,3.13-.51,6.48,1.03,9.34,3.17,5.91,11,8.42,16.89,5.04,2.94-1.62,5.12-4.33,6.06-7.54.88-3.13.51-6.48-1.03-9.34-3.18-5.91-11.01-8.42-16.89-5.05-2.94,1.62-5.11,4.34-6.06,7.56" class="cls-2"></path><path d="M177.56,28.37c-3.83,2.5-4.06,2.77-7.63,6.33-1.66,1.94-3.2,3.98-4.6,6.11-1.34,2.07-2.55,4.22-3.62,6.45-2.79,6.31-5.03,12.85-6.69,19.54-.75,2.88-1.34,5.79-1.76,8.74-.55,4.19-.78,8.44-1.02,12.69-.35,6.24-.26,12.49.26,18.72.29,3.3.59,6.61,1.02,9.91.13,1.03.3,2.03.47,3.05.06,1.06.23,2.11.52,3.13.13.74.32,1.62.54,2.7l.22,1.11c.16.82.34,1.65.52,2.47.31,1.37.64,2.76,1.02,4.12.83,3.01,1.76,5.97,2.84,8.9,1.43,3.89,3.18,7.64,4.94,11.37,2.89,6.28,6.89,11.98,11.81,16.83,1.91,2.05,3.94,3.99,6.07,5.8,1.56,1.26,3.19,2.43,4.87,3.52.98.7,2.01,1.31,3.09,1.84l2.95,1.13c2.11.49,4.32.36,6.36-.38,2.97-.88,5.41-3.03,6.64-5.87,1.4-3.13,2.13-5.34,1.57-8.56-.57-3.32-2.44-6.28-5.2-8.2-1.21-.86-3.52-2.86-4.43-3.48-2.85-2.36-5.49-4.96-7.9-7.76-2.16-3.01-4.05-6.2-5.64-9.54-1.4-3.25-2.63-6.57-3.69-9.94-.92-2.95-1.68-5.94-2.34-8.96-.09-.88-.26-1.75-.52-2.6-.08-.5-.15-1.01-.22-1.48-.47-3.14-.74-6.31-1-9.49-.55-6.1-.69-12.23-.4-18.35.18-3.23.54-6.45,1.08-9.65.58-3.18,1.32-6.33,2.21-9.44,1.13-3.7,2.55-7.31,4.25-10.78.81-1.46,1.8-2.81,2.95-4.02,1.6-1.85,3.69-3.02,5.67-4.34,2.63-1.72,3.98-4.28,4.6-7.5.63-3.5-.05-7.11-1.91-10.13-1.72-2.85-4.5-4.9-7.73-5.7-1.08-.26-2.21-.35-3.31-.25-2.4.13-4.75.76-6.9,1.84l.02.09Z" class="cls-10"></path><path d="M477.13,31.96c.14.24.26.49.37.74,1.18,3.27,2.02,6.66,2.52,10.1.17,2.06.26,4.12.29,6.18,0,1.77,0,3.53-.1,5.29-.16,2.32-.32,4.61-.47,6.95-.1,1.39-.3,2.76-.47,4.18l-.6,4.6c-.2,1.53-.6,3.26-.92,4.89-.2-1.36-.39-2.76-.57-4.08-.93-8.43-1.34-16.91-1.22-25.4.06-3.95.33-7.89.79-11.81.1-.56.21-1.12.37-1.68v.03ZM471.96,11.61c-.28.06-.55.15-.81.27-1.01.35-1.99.75-2.95,1.21-1.35.77-2.59,1.72-3.69,2.82-.98,1.01-1.89,2.1-2.71,3.25-.45.59-.83,1.23-1.16,1.9-1.07,2.09-1.87,4.3-2.37,6.59-1.29,6.06-1.54,12.32-1.69,18.49-.12,4.36.07,8.76.31,13.11.32,5.32.74,10.64,1.48,15.91.33,2.51.68,5,1.11,7.5.37,2.16.8,4.31,1.28,6.45.47,2.21.92,4.43,1.48,6.58.63,2.49,1.29,4.95,1.98,7.42.58,2.06,1.23,4.09,1.84,6.13l.83,2.66c-1.6,3.52-3.4,6.96-5.31,10.33-.7,1.25-1.48,2.47-2.26,3.69-.97,1.61-1.96,3.22-2.95,4.82-1.52,2.44-3.17,4.78-4.95,7.03-4.9,6.17-10.49,11.75-16.67,16.64-2.76,1.98-5.53,3.78-8.38,5.61-2.63,1.71-5.28,3.4-7.96,5.03-2.17,1.26-3.79,3.3-4.52,5.7-.73,2.5-.42,5.19.85,7.46,2.52,4.43,8.66,6.44,13.16,3.69,4.28-2.6,8.46-5.37,12.66-8.12,5.12-3.3,9.94-7.06,14.39-11.23,5.25-5.05,10.04-10.54,14.33-16.41,1.33-1.85,2.65-3.61,3.82-5.53l2.14-3.52,1.07-1.76c1.3,2.66,2.75,5.24,4.35,7.73,1.96,3.02,4.05,5.91,6.23,8.79,1.98,2.39,4.15,4.61,6.49,6.64,2.09,1.96,4.22,3.85,6.44,5.67,2.89,2.37,5.79,4.74,8.86,6.91l2.26,1c5.11,1.51,10.47-1.42,11.98-6.53.48-1.65.52-3.4.11-5.06-.32-.81-.64-1.61-.92-2.42-.82-1.45-2.01-2.67-3.45-3.52-1.01-.74-1.99-1.48-2.95-2.22-2.33-1.91-4.6-3.85-6.89-5.9-1.02-.92-2.02-1.84-3-2.76-1.67-1.55-3.25-3.2-4.73-4.93-1.17-1.63-2.3-3.28-3.41-4.98-1.16-1.72-2.22-3.5-3.18-5.33-1.03-2.03-2.02-4.06-2.95-6.13-.74-1.7-1.48-3.42-2.21-5.17-.6-1.53-1.18-3.09-1.71-4.6.13-.36.26-.74.38-1.07.94-2.74,1.86-5.48,2.76-8.21.74-2.01,1.2-4.12,1.77-6.19.52-1.85,1.04-3.69,1.48-5.53.62-2.61,1.23-5.23,1.85-7.83.17-.82.3-1.66.46-2.48.3-1.63.6-3.27.92-4.9.49-2.7.91-5.41,1.22-8.12.28-2.15.63-4.28.78-6.45.18-2.86.45-5.71.53-8.58.32-7.4-.48-14.81-2.37-21.97-.44-1.53-.94-3.05-1.48-4.54-.48-1.37-1.04-2.71-1.68-4.01-.18-.34-.39-.66-.61-.97-.69-1-1.42-1.96-2.22-2.89-1.43-1.65-3.09-3.1-4.91-4.3-.65-.4-1.33-.76-2.03-1.06-1.36-.73-2.8-1.29-4.29-1.69-1.41-.35-2.86-.53-4.31-.52-1.3,0-2.59.14-3.85.43h-.03Z" class="cls-5"></path><path d="M468.2,62.36l-.78.11h-.27l1.05-.14v.04ZM518.43,36.65l-4.6.74c-2.87.35-5.73.65-8.61.92-4.11.44-8.19,1.03-12.28,1.64-4.15.46-8.29.74-12.47,1.11-4.94.48-9.87,1.07-14.76,1.7l-.38.06-.41.06h.3l-.58.08h-.24c-.78,0-1.55.11-2.31.29-.78.03-1.55.14-2.31.34h-.08c-3.96.54-7.91,1.13-11.85,1.84-3.94.72-7.67,1.54-11.56,2.07h.14c-2.7.4-5.45.79-8.22,1.32-1.35.24-2.69.56-4.06.81-1.36.24-2.95.55-4.47.98-5.31,1.45-8.45,6.93-7.01,12.25,1.58,5.28,7.08,8.35,12.41,6.92,2.55-.74,5.17-1.11,7.77-1.64,2.15-.44,4.31-.78,6.45-1.11,2.14-.33,4.22-.54,6.3-.92l5.65-1.09c3.49-.65,6.96-1.28,10.47-1.79l.92-.13h.16l-.6.09,1.07-.13c.64-.01,1.28-.08,1.9-.21.6-.05,1.2-.14,1.78-.29,4.33-.56,8.67-1.06,13.02-1.48,4.72-.46,9.43-.74,14.13-1.3,2.28-.27,4.53-.62,6.79-.98,2.82-.35,5.64-.66,8.47-.92,4.85-.52,9.67-1.17,14.48-2l2.49-1.05c1.49-.87,2.73-2.12,3.59-3.62,1.3-2.28,1.63-5,.91-7.52-.73-2.54-2.44-4.69-4.75-5.98l-2.38-.92c-1.73-.47-3.55-.47-5.28,0l.03-.1Z" class="cls-5"></path><path d="M69.28,36.05c2.2.02,4.4.22,6.56.6,1.59.43,3.15.99,4.66,1.65,1.58.92,3.08,1.96,4.5,3.11,1.15,1.15,2.22,2.38,3.19,3.69.63,1.07,1.18,2.19,1.66,3.34.33,1.29.58,2.61.74,3.93-.01,1.97-.13,3.94-.35,5.9-.43,1.64-.99,3.25-1.65,4.81-1.06,1.86-2.25,3.63-3.6,5.3-2.33,2.43-4.89,4.64-7.64,6.59-4.26,2.69-8.79,4.92-13.53,6.64-3.66,1.17-7.41,2.06-11.22,2.66-.19-1.89-.36-3.77-.5-5.66-.31-7.16.19-14.35,1.48-21.4,1.02-4.52,2.36-10.33,4.24-14.57.5-.88,1.04-1.73,1.64-2.54.54-.56,1.1-1.08,1.7-1.58,1.03-.57,2.1-1.08,3.19-1.52,1.61-.43,3.26-.74,4.92-.93M60.49,13.29c-2.03.46-3.99,1.23-5.96,1.89-1.26.45-2.49.97-3.69,1.58-1.79.98-3.52,2.08-5.16,3.29-.86.6-1.68,1.28-2.44,2.01-2.35,2.18-4.37,4.68-6,7.43-2.81,4.96-4.96,10.26-6.4,15.77-2.91,10.59-4.11,21.59-3.53,32.56.12,2.14.26,4.29.43,6.44-1.74-.13-3.48-.3-5.21-.52-3.36-.3-6.68.82-9.18,3.08-2.44,2.19-3.93,5.24-4.18,8.51-.24,3.4.86,6.75,3.09,9.34,2.16,2.45,5.17,3.98,8.41,4.3,3.51.45,7.03.67,10.55.85,1.05,5.67,2.08,11.35,3.31,16.98l2.57,11.88c.81,3.75,1.87,7.46,2.8,11.18.83,3.34,1.9,6.64,2.88,9.92.98,3.28,1.97,6.64,2.9,9.93.15.55.3,1.09.46,1.64.36,1.07.74,2.15,1.08,3.22.96,1.96,2.41,3.64,4.21,4.88,5.59,3.87,13.27,2.47,17.14-3.12.06-.08.11-.15.15-.23,1.71-2.58,2.74-6.39,1.88-9.49-1.02-3.69-2.09-7.31-3.17-10.94-.99-3.31-2.08-6.6-2.95-9.95-.98-3.94-1.97-7.85-2.95-11.74-.92-3.69-1.6-7.38-2.4-11.07-.98-4.54-1.84-9.08-2.7-13.65,3.75-.52,7.45-1.33,11.07-2.42,5.63-1.6,11.09-3.75,16.3-6.42,5.03-2.66,9.76-5.85,14.1-9.52,2.39-2.1,4.61-4.38,6.64-6.84,1.64-1.88,3.11-3.89,4.39-6.03,1.63-2.71,2.99-5.57,4.07-8.54,1.1-3.24,1.86-6.58,2.26-9.98.34-3.31.31-6.65-.1-9.95-.32-3.41-1.48-6.64-2.55-9.84-1.06-3.1-2.9-5.78-4.7-8.47-1.39-2.08-3.01-3.99-4.82-5.71-2.25-2.18-4.69-4.15-7.29-5.91-2.77-1.79-5.72-3.29-8.8-4.49-2.95-1.05-6-1.82-9.1-2.29-2.52-.46-5.07-.67-7.63-.61-2.9.02-5.78.29-8.63.8-.38.07-.76.15-1.13.24" class="cls-5"></path><path d="M701.6,181.28h0c-.65.17-1.31.24-1.98.23-1.24.11-2.49-.14-3.59-.74-.74-.4-1.43-.9-2.04-1.48-.87-.9-1.52-1.99-1.88-3.19-.29-1.43-.29-2.89,0-4.32.75-2.48,2.69-4.42,5.17-5.17.68-.21,1.4-.28,2.11-.22,1.1-.09,2.2.12,3.19.6,1.76.84,3.15,2.29,3.93,4.07.58,1.62.67,3.37.25,5.04-.77,2.47-2.7,4.4-5.16,5.17M704.52,167.19c-1.69-1.31-3.83-1.9-5.96-1.65-1.01.07-1.99.35-2.89.83-1.61.81-2.93,2.1-3.77,3.69-.78,1.49-1.09,3.18-.89,4.85.09,1.04.4,2.04.89,2.95,1.28,2.44,3.66,4.11,6.39,4.5.7.1,1.41.1,2.11,0,1.92-.19,3.7-1.06,5.04-2.45,1.63-1.57,2.51-3.75,2.44-6.01.04-2.65-1.21-5.15-3.36-6.7" class="cls-5"></path><path d="M699.22,173.35h-1.72v-3.35l1.72.04c1.47,0,1.78.06,2.15.23.77.38,1.08,1.32.7,2.09-.15.31-.39.55-.7.7-.42.25-.56.27-2.15.3M703.53,177.71c-1.12-2-1.8-2.91-2.39-3.21-.26-.12-.36-.22-.27-.24l.66-.19c.67-.19,1.24-.64,1.57-1.25.22-.34.32-.75.28-1.15.04-.64-.21-1.26-.69-1.68-.74-.69-1.56-.85-4.47-.85h-1.96v9.11h1.2v-3.94h.78c1.66,0,1.99.24,3.34,2.51l.86,1.48h1.37l-.29-.58Z" class="cls-5"></path></svg>